<?xml version="1.0" encoding="UTF-8" standalone="no"?>
<!-- Created with Inkscape (http://www.inkscape.org/) -->
<svg
   xmlns:dc="http://purl.org/dc/elements/1.1/"
   xmlns:cc="http://creativecommons.org/ns#"
   xmlns:rdf="http://www.w3.org/1999/02/22-rdf-syntax-ns#"
   xmlns:svg="http://www.w3.org/2000/svg"
   xmlns="http://www.w3.org/2000/svg"
   xmlns:sodipodi="http://sodipodi.sourceforge.net/DTD/sodipodi-0.dtd"
   xmlns:inkscape="http://www.inkscape.org/namespaces/inkscape"
   id="svg2"
   sodipodi:version="0.32"
   inkscape:version="0.46+devel"
   width="246.77773"
   height="185.96581"
   version="1.0"
   sodipodi:docname="Abdul Hameed II sign.svg"
   inkscape:output_extension="org.inkscape.output.svg.inkscape">
  <metadata
     id="metadata7">
    <rdf:RDF>
      <cc:Work
         rdf:about="">
        <dc:format>image/svg+xml</dc:format>
        <dc:type
           rdf:resource="http://purl.org/dc/dcmitype/StillImage" />
      </cc:Work>
    </rdf:RDF>
  </metadata>
  <defs
     id="defs5">
    <inkscape:perspective
       sodipodi:type="inkscape:persp3d"
       inkscape:vp_x="0 : 0.5 : 1"
       inkscape:vp_y="0 : 1000 : 0"
       inkscape:vp_z="1 : 0.5 : 1"
       inkscape:persp3d-origin="0.5 : 0.33333333 : 1"
       id="perspective9" />
  </defs>
  <sodipodi:namedview
     inkscape:window-height="731"
     inkscape:window-width="640"
     inkscape:pageshadow="2"
     inkscape:pageopacity="0.0"
     guidetolerance="10.0"
     gridtolerance="10.0"
     objecttolerance="10.0"
     borderopacity="1.0"
     bordercolor="#666666"
     pagecolor="#ffffff"
     id="base"
     showgrid="false"
     inkscape:zoom="2.2044129"
     inkscape:cx="123.38886"
     inkscape:cy="92.982901"
     inkscape:window-x="83"
     inkscape:window-y="132"
     inkscape:current-layer="svg2" />
  <g
     id="g2678"
     transform="translate(-362.55334,-815.14258)">
    <path
       sodipodi:nodetypes="csssssssscccssccssccssssssssssssssssssccsssssssssssc"
       transform="translate(-409.78806,158.04498)"
       d="m 962.77949,762.20548 c -5.95322,-2.08521 -7.10302,-3.75015 -7.10302,-10.28531 0,-7.9437 3.16858,-13.83648 12.27154,-22.82208 4.11882,-4.06571 7.8802,-7.39221 8.35861,-7.39221 2.37211,0 0.20037,3.1635 -6.12945,8.92859 -11.30322,10.29477 -15.66986,20.60132 -10.88581,25.69371 1.8081,1.92463 3.24554,2.3777 7.54365,2.3777 4.41294,0 5.80675,-0.46454 8.25112,-2.75 2.42968,-2.27173 2.84746,-3.31538 2.40215,-6.00085 -0.43331,-2.6131 -1.15435,-3.41184 -3.67543,-4.07148 l -3.13638,-0.82063 2.42194,-1.30573 c 2.23423,-1.20452 2.63904,-1.04397 5.2231,2.07149 3.38709,4.08363 3.40452,4.3586 0.58851,9.28318 -3.99125,6.97982 -9.51735,9.40999 -16.13053,7.09362 z m -80.24932,40.81336 c 1.00555,-1.00554 4.6463,-1.11982 4.6463,-0.14584 0,0.45808 -1.2,0.83288 -2.66667,0.83288 -1.46666,0 -2.3575,-0.30917 -1.97963,-0.68704 z m -11.36587,20.48684 c -1.25301,-0.46352 -2.52376,-0.5972 -2.8239,-0.29707 -0.30013,0.30014 -2.9348,-1.94067 -5.85481,-4.97957 -6.28135,-6.53708 -7.00509,-10.61085 -2.85237,-16.05535 1.35122,-1.77153 2.18205,-3.49568 1.84629,-3.83144 -0.33576,-0.33576 2.0462,-1.73791 5.29324,-3.1159 3.24705,-1.37799 7.20217,-3.19787 8.78916,-4.04417 1.587,-0.84631 3.11362,-1.31057 3.3925,-1.03169 0.61654,0.61654 -1.705,3.55871 -2.62385,3.32529 -2.12479,-0.53974 -5.09124,1.66746 -5.64801,4.20244 -1.07761,4.90628 1.66135,8.68812 7.13828,9.85623 2.96841,0.63311 5.5866,0.65392 7.15689,0.05689 5.3198,-2.02258 3.92857,2.32998 -1.50774,4.71709 -3.96282,1.7401 -9.55966,1.86056 -12.53214,0.26974 -2.91485,-1.55998 -5.03472,-6.79767 -4.46634,-11.03526 0.5815,-4.33538 -0.52883,-4.21938 -2.86557,0.29937 -1.95099,3.77281 -1.15059,7.85314 2.35857,12.02353 4.66683,5.54621 11.9154,7.24431 18.74409,4.3911 3.51854,-1.47014 4.62944,-0.55535 2.21788,1.82635 -2.82264,2.7877 -12.05752,4.79285 -15.76217,3.42242 z m 1.01217,13.81027 c -6.85169,-1.95905 -10.69944,-4.27493 -16.5128,-9.93873 -9.22832,-8.99091 -9.44709,-15.7618 -0.78908,-24.42134 5.38692,-5.38787 7.74284,-5.58737 2.91824,-0.24712 -3.05785,3.38467 -3.61636,4.7178 -3.61636,8.63197 0,5.48497 2.32142,9.6951 7.70653,13.9766 4.91579,3.90835 6.82408,5.05611 5.8879,3.54133 -0.39303,-0.63592 0.77494,-0.29906 2.59549,0.74859 1.82054,1.04765 4.77651,2.21005 6.56881,2.5831 1.7923,0.37305 3.00324,1.09166 2.69098,1.5969 -0.31639,0.51193 1.67199,0.91863 4.49127,0.91863 2.78246,0 5.05902,0.41968 5.05902,0.93261 0,2.24963 -11.15068,3.34991 -17,1.67746 z"
       style="fill:#000000"
       id="path2516" />
    <g
       id="g2668">
      <path
         id="path2526"
         style="fill:#000000"
         d="m 1165.4265,812.00015 c -2.61356,-0.5034 -2.59515,-0.44265 -1.11729,-3.68618 0.6912,-1.51702 3.65948,-3.77659 7.61528,-5.79705 l 6.48257,-3.31104 -3.51695,-0.3045 c -1.93433,-0.16748 -5.1358,0.37189 -7.11438,1.19859 l -3.59743,1.5031 1.39672,-2.70095 c 0.7682,-1.48553 2.3359,-3.55091 3.48379,-4.58973 1.91998,-1.73756 2.5486,-1.78447 7.85238,-0.58594 3.17092,0.71656 7.40709,1.24378 9.41372,1.17161 3.29065,-0.11836 3.59518,0.08642 3.10557,2.08829 -0.92571,3.78494 -2.33561,4.7194 -7.12642,4.72327 -2.87077,0.00232 -5.88017,0.76744 -7.92706,2.0154 -3.20501,1.95406 -3.54253,3.98086 -0.66292,3.98086 1.15127,0 1.20427,0.47247 0.28047,2.5 -1.14433,2.51153 -2.9169,2.88273 -8.56805,1.79427 z m 15.6954,3.31934 c -3.11248,-1.006 -3.4747,-1.51525 -3.74835,-5.26984 -0.36561,-5.01648 2.159,-7.34377 7.96641,-7.34377 2.04516,0 3.99659,-0.45 4.33651,-1 0.33992,-0.55 1.49529,-1 2.56749,-1 1.66288,0 1.77555,0.27847 0.76643,1.89432 -0.7737,1.2389 -2.8526,2.11581 -6.00847,2.53445 -5.16307,0.6849 -6.41551,2.64989 -2.89119,4.53605 3.07089,1.64349 6.41533,1.22262 11.4168,-1.43669 2.55692,-1.35952 4.64894,-2.21649 4.64894,-1.90437 0,1.58796 -4.35676,6.37912 -5.81809,6.3982 -0.92505,0.01208 -3.50647,0.85071 -5.73648,1.86361 -3.3582292,1.5253605 -4.6462919,1.650395 -7.5,0.728038 z"
         transform="translate(-664.91782,161.43166)" />
      <path
         id="path2514"
         style="fill:#000000"
         d="m 671.62262,756.61875 c -0.36954,-0.59793 -0.2103,-1.54872 0.35385,-2.11287 1.26163,-1.26163 3.2,-0.19612 3.2,1.75902 0,1.68362 -2.57364,1.93987 -3.55385,0.35385 z m 4.22052,7.42046 c -1.4193,-1.41929 -0.55017,-4.08677 2.08333,-6.39404 1.5125,-1.32513 2.1875,-1.76357 1.5,-0.97431 -1.98674,2.28081 -1.4586,4.03502 1.21482,4.03502 1.39168,0 2.90426,-0.82111 3.47416,-1.88598 1.15347,-2.15528 7.42735,-6.11402 9.68961,-6.11402 2.49213,0 4.57913,2.77018 3.84043,5.0976 -0.48584,1.53075 -0.96747,1.80395 -1.76836,1.00306 -1.9365,-1.9365 -5.078,-1.19241 -10.12988,2.39934 -4.6229,3.28676 -8.37679,4.36066 -9.90411,2.83333 z m -43.84166,12.62855 c -3.31307,-1.93307 -3.74102,-6.96922 -3.6932,-43.46188 0.04551,-34.72646 -0.91972,-53.73588 -3.23785,-63.76706 -0.93318,-4.03815 -0.84417,-5.15998 0.58211,-7.33676 0.92605,-1.41334 1.94564,-2.3078 2.26575,-1.98769 1.81761,1.81761 3.35714,21.23105 3.81376,48.09151 0.28049,16.5 0.69719,30.53924 0.92598,31.1983 0.2288,0.65907 -0.06025,6.90205 -0.64232,13.87329 -0.83558,10.00736 -0.79413,12.83825 0.19694,13.45077 0.69039,0.42668 0.98009,1.49286 0.64378,2.36927 -0.60585,1.57881 -0.05099,2.32299 3.82004,5.12347 1.72498,1.24793 1.79373,1.58491 0.5,2.45058 -1.86344,1.24688 -3.03293,1.24602 -5.17499,-0.0038 z m -12.57501,18.34152 c -0.6875,-0.25854 -1.25,-1.33257 -1.25,-2.38673 0,-2.4332 -0.42103,-2.4046 -4.04506,0.27477 -2.4077,1.78008 -3.47941,2.01039 -5.70951,1.22697 -5.81758,-2.04369 -6.39882,-8.99226 -4.4684,-53.41841 0.53772,-12.375 0.8457,-25.425 0.6844,-29 -0.98245,-21.77381 -0.81321,-33.8712 0.49592,-35.4486 0.84459,-1.01768 1.71215,-1.2819 2.29508,-0.69897 1.16839,1.16839 1.23005,50.04586 0.08472,67.14757 -0.46043,6.875 -0.81146,18.89364 -0.78006,26.70809 0.04968,12.36515 0.29677,14.47295 1.90498,16.25 2.09238,2.31205 5.76164,2.68221 7.37058,0.74355 0.59265,-0.71409 1.04674,-2.85159 1.0091,-4.75 -0.03764,-1.8984 -0.22132,-14.01597 -0.40819,-26.92793 -0.18686,-12.91195 -0.66101,-29.11195 -1.05365,-36 -0.39265,-6.88804 -0.64011,-16.12371 -0.54992,-20.52371 0.09019,-4.4 -0.24557,-12.275 -0.74615,-17.5 -0.7515,-7.84419 -0.6499,-9.90729 0.58292,-11.83676 0.82117,-1.28522 1.70733,-2.12248 1.96924,-1.86058 1.2981,1.29811 2.27833,28.65662 2.47927,69.19734 0.24554,49.53855 0.45878,51.50511 5.5837,51.49384 1.54057,-0.00339 4.03091,-0.64775 5.53409,-1.43191 4.68699,-2.44505 3.94216,-0.01781 -1.01524,3.30846 -2.5948,1.74103 -5.61782,3.78147 -6.71782,4.53429 -1.1,0.75283 -2.5625,1.15725 -3.25,0.89872 z"
         transform="translate(-138.35294,155.29412)" />
      <path
         id="path2488"
         style="fill:#000000"
         d="m 1199.5,567.15625 c -0.5372,0.31921 -1.1246,0.67454 -1.3125,1.3125 -0.3973,0.89407 -0.4841,1.87647 -0.5,2.84375 0.0767,1.02171 -0.044,2.0425 -0.0937,3.0625 -0.1381,1.13792 -0.2939,2.27341 -0.4688,3.40625 -0.1213,1.09028 -0.2887,2.18102 -0.25,3.28125 -0.0291,0.98641 0.2612,1.94635 0.5625,2.875 0.3483,1.01976 0.6179,2.07427 1.125,3.03125 0.3733,0.96491 0.9713,1.81685 1.4687,2.71875 0.4933,0.85206 0.9791,1.71336 1.6563,2.4375 0.483,0.44807 0.9256,0.96309 1.5313,1.25 0.8006,0.56321 1.5211,1.22873 2.2812,1.84375 0.8505,0.68582 1.6009,1.48183 2.375,2.25 0.7561,0.76655 1.5063,1.53993 2.1875,2.375 1.1875,1.42708 2.375,2.85417 3.5625,4.28125 0.3646,-1.3125 0.7292,-2.625 1.0938,-3.9375 0.2319,-0.92264 0.4361,-1.95449 -0.0576,-2.83284 -0.4883,-0.85807 -1.0961,-1.64894 -1.7862,-2.35466 -0.7396,-0.84375 -1.4792,-1.6875 -2.2188,-2.53125 -0.5523,-0.86163 -1.1708,-1.68807 -1.5937,-2.625 -0.3974,-0.89415 -1.106,-1.61237 -1.9063,-2.15625 -0.8135,-0.55734 -1.5245,-1.24265 -2.25,-1.90625 -0.2157,-0.17081 -0.1652,-0.48933 -0.3437,-0.6875 -0.3765,-0.94814 0.0242,-1.92522 0.1563,-2.875 0.2376,-0.96156 0.7652,-1.81545 1.1562,-2.71875 0.4671,-0.89501 1.0822,-1.69641 1.6875,-2.5 0.7917,-1.03125 1.5833,-2.0625 2.375,-3.09375 0.3539,-0.55053 0.3696,-1.24105 0.375,-1.875 -0.2899,-0.54655 -0.6263,-1.16345 -1.25,-1.375 -1.1875,1.38542 -2.375,2.77083 -3.5625,4.15625 -0.75,0.8125 -1.5,1.625 -2.25,2.4375 -0.3542,0.32292 -0.7083,0.64583 -1.0625,0.96875 0.304,-0.94258 0.9537,-1.71419 1.461,-2.55059 0.497,-1.22019 0.9835,-2.44586 1.4765,-3.66816 C 1205.499,571.33146 1205.4567,570.5019 1205.5312,569.78125 1205.4139,567.40882 1205.1009,568.54746 1204.25,568.15625 c -0.1703,0.2059 -0.6593,0.20159 -0.5938,0.5625 -0.2784,0.42684 -0.5304,0.91219 -0.4687,1.4375 -0.2841,0.97041 -0.6798,1.90923 -1.101,2.82702 -0.4109,0.87197 -1.071,1.59213 -1.6913,2.31852 l -0.12,0.13795 c -0.1112,0.12748 -0.1332,-0.22036 0.006,-0.15849 0.238,-1.069 0.15850169,-2.14204 0.35860169,-3.21875 C 1200.4676,571.14431 1200.901,570.11929 1200.9062,569.09375 c -0.0495,-0.76766 -0.4354,-1.51907 -1.0624,-1.96875 -0.1115,0.0297 -0.2388,-0.03806 -0.3438,0.03125 z M 1252.4062,599 c -0.7761,0.20384 -1.5853,0.34397 -2.3124,0.6875 -0.5221,0.3285 -1.0942,0.61308 -1.4688,1.125 -0.7106,0.78888 -1.3083,1.6651 -1.892,2.5493 -0.6011,0.89206 -1.193,1.79078 -1.7699,2.69863 -0.5403,0.89668 -1.1464,1.75448 -1.6099,2.69551 -0.524,0.98748 -1.0227,1.98777 -1.5094,2.99406 -0.2273,0.45911 -0.4734,0.91622 -0.625,1.40625 -0.0381,0.35111 0.3318,0.54024 0.5937,0.6875 0.9865,0.31 1.9717,0.63393 2.9918,0.8171 1.0505,0.22067 2.1271,0.27902 3.1901,0.41999 1.7249,0.17019 3.4478,0.3628 5.1764,0.49329 1.5255,0.13222 3.0524,0.24787 4.5792,0.36337 1.2821,0.04539 2.564,0.09633 3.8438,0.1875 0.6864,-0.00832 1.3525,-0.19245 2,-0.40625 0.034,-0.28784 -0.3733,-0.48481 -0.25,-0.78125 0.1533,-0.14858 0.3032,0.05872 0.4687,0.0625 0.7885,0.45411 1.2587,1.31991 1.3726,2.20439 -0.0548,0.51668 0.1527,1.02215 0.4711,1.42061 0.4586,-0.0387 0.6909,0.43491 1,0.6875 0.6933,0.86069 1.3586,1.74245 1.9935,2.6471 0.5744,0.80974 1.0864,1.66046 1.6003,2.50915 0.5313,0.98958 1.0625,1.97917 1.5938,2.96875 0.3023,0.94108 0.1539,1.94664 0.3437,2.90625 0.1385,0.2892 0.604,0.47022 0.8125,0.15625 0.6591,-0.68183 1.4697,-1.24314 1.9688,-2.0625 0.4524,-0.75224 0.4374,-1.7051 0.2187,-2.53125 -0.2096,-0.96691 -0.6094,-1.88013 -1.0949,-2.73854 -0.6824,-1.27719 -1.3746,-2.54912 -2.0614,-3.82396 -0.5842,-0.97271 -1.1436,-1.9602 -1.7218,-2.93627 -0.5977,-0.95842 -1.2376,-1.88975 -1.8406,-2.84498 -0.6337,-0.90849 -1.2093,-1.85672 -1.8676,-2.74762 -0.8862,-1.19997 -1.7761,-2.39721 -2.6637,-3.59613 -0.6931,-0.85547 -1.411,-1.68952 -2.1563,-2.5 -0.7499,-0.86458 -1.4999,-1.72917 -2.25,-2.59375 -0.795,-0.68847 -1.5903,-1.38973 -2.4726,-1.9631 -0.8878,-0.52478 -1.8606,-0.90672 -2.8874,-1.03794 -0.5815,-0.12284 -1.1713,-0.19277 -1.765,-0.12396 z m 0.9688,2.71875 c 0.9553,0.27112 1.6687,0.99925 2.375,1.65625 0.7263,0.73258 1.4814,1.44093 2.125,2.25 0.6944,0.83077 1.2794,1.74394 1.9062,2.625 0.648,0.76923 1.1931,1.6135 1.7188,2.46875 0.4689,0.86323 1.0814,1.66044 1.4062,2.59375 -0.2119,0.22873 -0.5445,0.0004 -0.5937,-0.25 -0.3908,-0.68128 -0.8969,-1.39662 -1.7187,-1.5625 -0.9683,-0.27352 -1.9375,-0.55498 -2.9376,-0.6875 -2.9895,-0.27083 -5.9791,-0.54167 -8.9687,-0.8125 -0.6492,-0.11916 -1.295,-0.25503 -1.9375,-0.40625 -0.4115,-0.33267 -0.4886,-0.93838 -0.2812,-1.40625 0.2464,-0.95157 0.9273,-1.68906 1.5624,-2.40625 0.7381,-0.62189 1.5079,-1.2549 2.4374,-1.56245 0.7954,-0.23401 1.6355,-0.53412 2.1564,-1.2188 0.0811,-0.20415 0.0184,-0.4169 -0.0938,-0.59375 -0.0506,-0.36991 0.2833,-0.63609 0.625,-0.65625 l 0.0938,-0.03125 z M 1300,649.125 c -0.9627,0.25565 -1.872,0.66328 -2.7812,1.0625 -1.6042,0.60417 -3.2084,1.20833 -4.8126,1.8125 -1.0213,0.35285 -2.0746,0.5956 -3.125,0.84375 -1.2812,0.32292 -2.5624,0.64583 -3.8437,0.96875 -1.0937,0.20833 -2.1875,0.41667 -3.2813,0.625 -1.0892,0.14032 -2.1873,0.18971 -3.2812,0.28125 -1.0223,-0.18545 -2.0563,-0.34478 -3.0312,-0.71875 -1.1459,-0.61458 -2.2917,-1.22917 -3.4376,-1.84375 -1.0012,-0.35662 -2.0382,-0.59563 -3.0624,-0.875 -0.9845,-0.12732 -1.9735,-0.28347 -2.9688,-0.1875 -1.0941,0.13264 -2.1938,0.22407 -3.2812,0.40625 -0.9767,0.18411 -1.9191,0.51652 -2.8331,0.90187 -0.9036,0.39865 -1.7095,0.98482 -2.5056,1.56314 -1.346,1.12564 -2.6908,2.2526 -4.0363,3.37874 -2.2605,2.22917 -4.5209,4.45833 -6.7813,6.6875 -0.75,0.80208 -1.5,1.60417 -2.25,2.40625 -1.2292,1.46875 -2.4583,2.9375 -3.6875,4.40625 -0.697,0.92179 -1.429,1.81769 -2.0989,2.75956 -0.5609,0.78841 -1.1197,1.57826 -1.6823,2.36544 L 1237.375,676 c 0.0681,0.0613 0.1602,-0.11753 0.0312,-0.0625 -0.13,-0.14724 0.1738,-0.27585 0.25,-0.125 l 0.0938,-0.125 c -0.0094,-0.14114 0.1647,0.01463 0.1562,-0.125 0.0365,-0.05669 0.0764,-0.22803 0.1876,-0.1875 0.8036,-0.66122 1.5946,-1.3385 2.3124,-2.09375 1.9375,-1.88542 3.8751,-3.77083 5.8126,-5.65625 2.875,-2.94792 5.75,-5.89583 8.625,-8.84375 0.7604,-0.8125 1.5208,-1.625 2.2812,-2.4375 1.0889,0.15561 2.1721,0.34351 3.25,0.5625 3.7604,0.69792 7.5208,1.39583 11.2812,2.09375 1.0774,0.18004 2.1666,0.27201 3.25,0.40625 1.0194,0.09966 2.0373,0.23058 3.0626,0.25 0.9931,0.07186 1.9899,-0.05789 2.9687,-0.21875 3.1042,-0.46875 6.2083,-0.9375 9.3125,-1.40625 1.0704,-0.08654 2.1081,-0.37655 3.1562,-0.59375 0.9945,-0.28512 2.0162,-0.49306 2.9688,-0.90625 0.7006,-0.31123 0.8675,-1.15357 1.25,-1.75 0.5051,-0.98583 0.9845,-1.98391 1.4355,-2.99565 0.4166,-0.84351 0.8512,-1.68452 1.0957,-2.5981 l -0.0624,-0.09375 -0.0313,0 z"
         transform="translate(-758.35813,325.12111)"
         sodipodi:nodetypes="cccccccccccsccccsccsscccccccccccccccccscccccccccccccscccccccccccccsccccscccccscccccccccccccccccccccccccccccccccccccccccccscccccsccccccccccccscccccc" />
      <path
         id="path2470"
         style="fill:#000000"
         d="m 1055.6562,564.71875 c -0.6756,-0.11186 -1.2456,0.66404 -0.9687,1.28125 -0.3771,0.89276 -1.061,1.64376 -1.862,2.17842 -0.7921,0.29787 -1.6903,1.57575 -0.763,2.19658 1.0044,0.47166 2.2257,-0.61018 3.1349,0.30029 0.6053,0.40849 1.6217,0.61845 2.0526,-0.14404 0.4912,-0.98315 0.2613,-2.11181 0.4688,-3.15625 0.1404,-0.9252 -0.0886,-2.17816 -1.0797,-2.52656 -0.3104,-0.11735 -0.6511,-0.21793 -0.9829,-0.12969 z m -68.56245,15.0625 c -1.93734,0.20272 -3.87454,0.43772 -5.78125,0.84375 -0.96936,0.29345 -1.75029,0.94372 -2.59706,1.46547 -0.83888,0.58474 -1.89213,0.62764 -2.86487,0.81233 -1.00227,0.20164 -1.929,0.71766 -2.7108,1.36921 -0.84346,0.57754 -1.44466,1.41388 -1.80141,2.36647 -0.46409,1.08117 -0.77784,2.22468 -0.9503,3.38717 -0.15073,1.04416 -0.14358,2.11243 0.20277,3.1194 0.2555,0.96929 0.69802,1.87725 1.16074,2.76094 0.55916,0.93989 1.38966,1.67874 2.0934,2.50749 0.51682,0.45682 0.98203,1.24102 1.65503,1.36777 0.42395,-0.88275 0.25576,-1.93333 0.39126,-2.89011 0.11164,-2.11033 0.1299,-4.22856 0.38999,-6.32864 -0.0007,-0.84564 0.25482,-1.70673 0.80895,-2.35538 0.59445,-0.69591 1.5126,-0.97355 2.3504,-1.26024 1.87583,-0.53746 3.75552,-1.0651 5.6307,-1.60623 0.98962,-0.36538 2.14324,-0.38097 3.00895,-1.01735 0.71652,-0.56345 1.07718,-1.4913 1.10725,-2.3858 0.00787,-0.94035 -0.52616,-2.14632 -1.58906,-2.1875 -0.16853,-0.00067 -0.33642,0.0233 -0.50469,0.03125 z m -4.75,8.0625 c -0.94526,0.14689 -1.98156,0.28338 -2.6875,1 -0.83773,0.60468 -1.41479,1.47863 -2,2.3125 -0.30517,0.94979 -0.56688,1.97215 -0.34375,2.96875 0.31399,1.03229 0.94667,1.92232 1.72851,2.65478 0.80191,0.67618 1.69178,1.2581 2.64427,1.70349 0.95247,0.48664 1.97082,0.83369 3.00222,1.11048 0.90589,0.14469 1.84481,0.25983 2.74152,-0.00579 0.97729,-0.22015 1.98936,-0.36806 2.88203,-0.84771 0.86803,-0.44272 1.76642,-0.87248 2.48108,-1.55004 0.76608,-0.69654 1.38813,-1.55476 1.86412,-2.47146 0.47202,-0.94101 0.66165,-2.06413 0.40625,-3.09375 -0.39343,-1.01568 -1.24567,-1.796 -2.23223,-2.22414 -1.61359,-0.63856 -3.33487,-0.9403 -5.04298,-1.20424 -1.58555,-0.21429 -3.18365,-0.34283 -4.78247,-0.37735 -0.22036,0.00816 -0.44071,0.01632 -0.66107,0.02448 z m 0.53125,3.4375 c 0.89995,0.48124 1.72189,1.11933 2.70468,1.43281 0.98698,0.31275 2.0487,0.40776 3.07657,0.28594 0.94848,0.04002 1.93672,-0.33394 2.84375,0.09375 -0.56522,0.72377 -1.47968,0.9733 -2.31407,1.24511 -1.30205,0.44537 -2.66087,0.69203 -3.99843,1.00489 -0.83957,0.13532 -1.72148,-0.26718 -2.16733,-0.99351 -0.44952,-0.82089 -0.90643,-1.81378 -0.55142,-2.75649 0.08906,-0.18217 0.15807,-0.37674 0.40625,-0.3125 z m 0.59375,11.03125 c -1.18336,0.09307 -2.3279,0.44581 -3.47816,0.7196 -1.23331,0.35487 -2.49025,0.62302 -3.72652,0.96321 -0.7866,0.25608 -1.46678,0.89378 -1.62159,1.72914 -0.20517,0.85261 -0.3652,1.74025 -0.26748,2.6193 0.11395,0.90496 0.776,1.62495 1.5625,2.03125 1.15051,0.57643 2.45091,0.72206 3.71359,0.85677 1.54341,0.16126 3.08465,-0.09492 4.61777,-0.24731 1.04702,-0.10625 2.07757,-0.31799 3.0683,-0.67539 0.84515,-0.25333 1.74279,-0.48734 2.45436,-1.02579 0.93857,-0.77631 1.4376,-1.91304 2.14598,-2.87703 0.36759,-0.8082 0.95507,-1.59813 0.875,-2.53125 -0.03409,-0.82237 -1.05157,-1.18307 -1.62085,-0.5861 -0.63893,0.61653 -0.98538,1.52047 -1.74616,2.04775 -0.73863,0.5172 -1.62689,0.77516 -2.46395,1.09213 -1.1021,0.386 -2.24129,0.69541 -3.41394,0.73963 -0.99901,0.10516 -2.00504,0.11563 -2.99031,-0.10605 -0.81125,-0.13382 -1.86246,-0.46977 -2.01479,-1.40611 -0.01496,-1.13317 1.37587,-1.31222 2.23351,-1.4467 1.03846,-0.24584 2.09811,-0.36518 3.16223,-0.42564 1.06054,-0.10516 2.12466,-0.15015 3.18654,-0.19786 0.44838,-0.04984 0.92241,-0.07855 1.32397,-0.3048 -1.01393,-0.33866 -2.01126,-0.77485 -3.0878,-0.86511 -0.63482,-0.07667 -1.27176,-0.17915 -1.9122,-0.10364 z m 4.9375,24.125 c -0.69822,0.59944 -0.88057,1.55204 -1.14224,2.38948 -0.36924,1.38873 -0.67301,2.79732 -0.79598,4.23138 -0.33688,2.88726 -0.41029,5.79633 -0.55163,8.69767 -0.12622,2.91638 -0.17268,5.83765 -0.11157,8.75607 0.07702,1.21298 0.14395,2.4301 0.28944,3.63668 0.22959,1.01738 0.3999,2.06759 0.25125,3.11117 -0.21695,0.96015 -0.37237,1.93323 -0.44564,2.91622 -0.1865,1.08058 -0.00499,2.15888 0.19779,3.22197 0.25079,1.08066 0.45415,2.21078 0.13109,3.3015 -0.2036,1.05036 -0.61139,2.13701 -0.29126,3.20661 0.36177,1.04436 1.17752,1.83849 1.75568,2.76041 0.53876,0.81343 1.0807,1.68206 1.99763,2.11131 0.86186,0.45533 1.78672,0.80189 2.72324,1.07247 1.04453,0.22254 2.11884,0.20172 3.1797,0.27456 2.25684,-0.1693 4.53795,-0.29285 6.72905,-0.90355 1.3776,-0.33983 2.7564,-0.67951 4.0928,-1.16205 1.6047,-0.54615 3.1642,-1.21442 4.7167,-1.89115 1.8001,-0.89348 3.5845,-1.81965 5.3136,-2.84488 2.1926,-1.30339 4.3121,-2.72694 6.4792,-4.07248 1.1994,-0.7805 2.4217,-1.52591 3.7018,-2.16799 7.0383,-3.68727 14.1726,-7.1866 21.2793,-10.73915 0.7539,-0.56188 1.9974,-1.00868 1.9688,-2.125 -0.4401,-0.96895 -1.708,-0.35595 -2.4437,-0.11252 -4.6124,1.538 -9.2135,3.11029 -13.8504,4.57346 -3.248,1.02022 -6.4586,2.16202 -9.6121,3.44531 -1.4085,0.62105 -2.7753,1.33231 -4.0989,2.11728 -2.1412,1.11224 -4.1241,2.49603 -6.2173,3.69256 -1.6118,0.96875 -3.2444,1.90196 -4.9167,2.76267 -2.3481,1.29756 -4.8476,2.30566 -7.3993,3.12394 -1.0965,0.32568 -2.20675,0.61946 -3.3366,0.80355 -0.9281,0.08825 -1.85948,0.0853 -2.78125,-0.0625 -0.94724,-0.13592 -1.79204,-0.58521 -2.54592,-1.15561 -0.74943,-0.4972 -1.81866,-1.22364 -1.57908,-2.25064 0.45935,-0.88939 1.60678,-0.91996 2.46104,-1.17065 0.94336,-0.24518 1.8821,-0.51311 2.83045,-0.74448 0.93294,-0.29775 1.95798,-0.24867 2.86831,-0.5799 0.77915,-0.27333 0.95365,-1.42166 0.0902,-1.72372 -0.98212,-0.39243 -2.06511,-0.43118 -3.08601,-0.69897 -1.48364,-0.28689 -2.98153,-0.52063 -4.44524,-0.89478 -0.99537,-0.32719 -1.68876,-1.15849 -2.27217,-1.98702 -0.48047,-0.57816 -1.17309,-1.8996 -0.13408,-2.26298 0.87201,-0.15998 1.80717,-0.15702 2.59375,-0.625 0.99561,-0.66819 2.02402,-1.28995 2.96875,-2.03125 0.67184,-0.46057 1.5028,-0.85736 2.3336,-0.67441 1.02273,0.20598 1.95574,0.91574 3.04145,0.73691 1.1062,-0.18829 2.1087,-0.74544 3.0624,-1.3125 1.3559,-0.93898 2.4634,-2.18798 3.4063,-3.53125 0.4288,-0.43528 0.7602,-1.57104 -0.0937,-1.71875 -0.9341,0.45481 -1.5833,1.40046 -2.625,1.65625 -1.0236,0.29711 -2.3425,-0.08538 -2.7401,-1.14385 -0.3925,-0.93202 0.2045,-2.07399 -0.5099,-2.8874 -0.6482,-0.83665 -1.66979,-0.06978 -2.15275,0.54288 -0.58065,0.75519 -1.25531,1.42571 -1.87855,2.14462 -0.71732,0.81854 -1.43707,1.66298 -2.39381,2.21046 -0.63476,0.50479 -1.38131,0.94572 -2.19994,1.03954 -0.9105,0.1453 -1.76707,-0.3874 -2.39826,-0.9929 -0.60909,-0.62879 -1.27321,-1.71851 -0.50373,-2.48011 0.78585,-0.55951 1.89551,-0.19759 2.79809,-0.50883 0.93779,-0.25135 1.8019,-0.72254 2.64847,-1.18737 0.9334,-0.53623 1.83377,-1.14164 2.67171,-1.81733 1.36563,-1.14357 2.64987,-2.38048 3.93997,-3.60721 0.4942,-0.51309 1.0765,-1.78574 1.9375,-1.1875 0.632,0.84136 0.6605,1.9731 0.9949,2.94845 0.0929,0.36091 0.2373,0.70841 0.4426,1.0203 0.4581,-0.89838 0.3219,-1.95701 0.375,-2.9375 0.1799,-1.2389 0.3992,-2.49439 0.2812,-3.75 -0.0662,-0.87976 0.5757,-2.06048 -0.2187,-2.71875 -0.9646,-0.15171 -1.404,1.07585 -2.0483,1.60903 -0.8468,0.92178 -1.7647,1.77656 -2.6392,2.67222 -1.35531,1.2913 -2.91995,2.3627 -4.64012,3.1067 -0.8543,0.32827 -1.7242,0.70791 -2.64113,0.79955 -1.17265,0.00575 -2.15345,-0.70668 -3.1875,-1.15625 -0.6978,-0.21448 -1.67835,-0.94754 -1.1875,-1.75 0.72612,-0.60521 1.71337,0.09682 2.5625,-0.09375 1.08324,-0.02193 2.07282,-0.49273 3.07954,-0.83867 1.02475,-0.48499 2.05049,-0.9694 3.01915,-1.56148 0.98774,-0.53963 1.82089,-1.31404 2.72386,-1.97923 0.5595,-0.23657 1.2689,-1.14387 0.5837,-1.62062 -1.03781,-0.01756 -2.01571,0.41147 -3.03125,0.5625 -1.13382,0.22622 -2.28334,0.37072 -3.4375,0.4375 -1.04267,-0.00034 -2.07922,-0.50749 -2.59405,-1.43801 -0.58784,-1.04468 -0.77811,-2.25272 -1.09703,-3.39574 -0.29047,-1.09076 -0.53061,-2.2422 -1.21517,-3.16625 -0.26934,-0.34168 -0.75374,-0.40741 -1.03125,-0.03125 z"
         transform="translate(-507.58131,323.66799)" />
      <path
         id="path2468"
         style="fill:#000000"
         d="m 814.36684,547.95588 c 0.425,-2.206842 2.20351,-2.158807 2.63295,0.071113 0.19702,1.023032 -0.31993,1.678887 -1.32332,1.678887 -1.02996,0 -1.52043,-0.655397 -1.30963,-1.75 z m -2.74935,28.90032 c -1.13244,-0.35768 -3.36011,-1.68602 -4.9504,-2.95187 -2.53761,-2.01993 -3.04836,-3.36593 -4.17399,-11.000004 -2.38731,-16.190866 -2.60004,-18.905256 -1.53325,-19.564564 0.94863,-0.58629 2.16837,5.114926 3.82233,17.866118 1.22587,9.45087 4.63599,12.08737 16.39429,12.6751 l 6.5,0.3249 1.961,-4 c 1.07855,-2.2 2.11548,-6.7 2.30429,-10 0.28317,-4.949276 -0.06024,-6.612922 -1.961,-9.5 l -2.30429,-3.5 -0.5,10.5 c -0.57663,12.10919 -1.81803,15.27222 -5.81251,14.80993 -2.0964,-0.24262 -2.78975,-0.96146 -3.19256,-3.30993 -0.28302,-1.65 -0.73515,-2.855865 -1.00475,-2.679701 -0.2696,0.176164 -1.75697,-0.161336 -3.30528,-0.75 -1.5483,-0.588664 -3.21997,-1.070299 -3.71482,-1.070299 -1.34159,0 -2.97008,-3.518644 -2.97008,-6.417413 0,-2.039056 0.95011,-3.026419 4.75,-4.936233 2.6125,-1.313036 5.80112,-2.7132 7.08583,-3.111474 2.11739,-0.65642 2.23276,-0.531556 1.23368,1.335239 -0.60618,1.132656 -2.90015,2.59807 -5.0977,3.256474 -2.19756,0.658404 -4.49532,1.799268 -5.10613,2.535253 -1.60062,1.92863 0.69569,4.338154 4.13432,4.338154 3.1009939,0 4.2979245,1.155218 5.6985937,5.5 0.53192639,1.65 1.691695,3.1405553 2.5772635,3.3123452 2.3764328,0.4610048 3.1205728,-5.2359722 2.3471828,-17.969597 -0.3622,-5.963512 -0.29661,-10.842748 0.14575,-10.842748 1.52795,0 8.06274,9.730249 9.13966,13.60887 1.57578,5.675285 1.34369,9.238835 -0.90413,13.88221 -3.61822,7.47423 -5.21198,8.52185 -12.79328,8.40924 -3.69107,-0.05482 -7.63758,-0.39232 -8.77002,-0.75 z m -68.54695,2.09402 c -1.43327,-0.95939 -4.4712,-3.99434 -6.75096,-6.74434 -2.27976,-2.75 -6.13061,-7.025 -8.55745,-9.5 -6.08632,-6.207114 -9.58566,-11.742894 -9.58566,-15.164057 0,-1.67243 1.78625,-5.71165 4.25,-9.610454 l 4.25,-6.725489 0.30968,3.738479 c 0.23382,2.822784 -0.34446,4.596101 -2.36095,7.239859 -3.6525,4.788668 -2.87114,7.018205 5.57614,15.910989 3.83632,4.038652 6.97513,7.78402 6.97513,8.323041 0,0.53902088 2.0548096,2.8500803 4.5662436,5.1356876 3.4751407,3.1626581 4.4906772,4.7512293 4.25,6.6481387 C 745.68086,580.65993 745.64026,580.67033 743.07054,578.95022 z m -24.8608,-0.81937 c -0.0183,-1.69127 -0.82077,-3.82909 -1.78327,-4.75071 -0.9625,-0.92162 -5.28344,-4.983866 -9.60209,-9.027208 l -7.85209,-7.351531 1.64135,-3.174024 1.64135,-3.174025 3.23944,4.276264 c 1.7817,2.351945 5.28436,5.626264 7.78369,7.276264 8.24017,5.439958 10.9481,11.80855 7.02564,16.5231 l -2.06075,2.4769 z m 35.87929,7.669 c -1.8594,-1.86706 -2.93684,-4.48915 -3.46062,-8.42185 -0.57353,-4.30619 -4.76981,-12.813631 -8.03495,-16.28987 -4.97372,-5.295275 -11.48263,-12.810271 -12.4568,-14.38225 -1.53821,-2.482143 -1.12264,-8.792841 0.67238,-10.210573 0.89791,-0.709185 3.36188,-2.912956 5.47549,-4.89727 2.11361,-1.984314 4.07895,-3.371814 4.36743,-3.083333 1.16824,1.168241 0.35314,3.020414 -2.97471,6.759523 -1.92457,2.162409 -3.49957,4.883467 -3.5,6.046794 -0.00078,2.127805 2.36063,5.655363 6.67179,9.966516 1.28008,1.280089 2.32743,2.797888 2.32743,3.372888 0,0.575 0.57956,1.045455 1.28791,1.045455 0.70835,0 3.22269,2.942811 5.58743,6.539581 3.467,5.273298 4.48795,7.899229 5.2726,13.561349 0.53518,3.86198 0.83334,8.04895 0.66256,9.30439 -0.28399,2.08775 -0.44601,2.14654 -1.89794,0.68865 z m 2.03836,20.7322 c -3.87802,-3.31997 -4.18609,-4.54049 -1.83,-7.25023 2.26753,-2.60789 4.87908,-3.43462 4.87908,-1.54456 0,0.56727 -0.62527,1.27133 -1.38949,1.56459 -1.50429,0.57725 -1.0133,4.42434 0.70969,5.56064 1.15893,0.76431 5.6798,-1.08002 5.6798,-2.31713 0,-0.46171 0.5625,-0.85696 1.25,-0.87833 0.6875,-0.02137 2.29742,-2.19347 3.57761,-4.8269 2.06331,-4.24437 2.24785,-5.63093 1.62519,-12.21115 -0.38633,-4.0827 -1.31604,-8.92806 -2.06601,-10.76746 -1.82589,-4.47821 -9.77566,-15.275808 -16.68028,-22.65564 -3.08751,-3.3 -6.17763,-7.125 -6.86695,-8.5 -0.68931,-1.375 -1.84019,-3.215933 -2.55749,-4.090963 -1.8398,-2.244346 1.12555,-9.942548 5.44109,-14.125332 l 3.27684,-3.176039 0,2.6194415 c 0,1.4406928 -1.125,3.956428 -2.5,5.5905227 -1.375,1.6340948 -2.4961,4.0311218 -2.49133,5.3267258 0.00799,2.169019 5.20344,8.711618 8.3976,10.57504 2.73553,1.595866 11.95092,14.953595 15.13181,21.933604 4.8924,10.73567 6.12278,17.25737 4.46356,23.65932 -0.73948,2.85323 -1.40342,5.90124 -1.47543,6.77337 -0.07201,0.87213 -1.82699,3.28176 -3.89997,5.35473 -4.18451,4.18451 -9.94496,5.72321 -12.67532,3.38575 z M 639.17647,602.3147 c 9.76637,-9.95032 24.22199,-21.63804 32.4506,-26.2371 3.89982,-2.17965 5.59747,-2.53629 10.41451,-2.18786 6.45458,0.46688 12.98442,3.41231 17.82269,8.0393 2.2413,2.14343 4.34786,3.13122 7.09492,3.32689 3.66144,0.2608 3.87768,0.12429 3.43893,-2.17092 -0.28557,-1.49386 0.22543,-3.21567 1.31006,-4.41417 2.2952,-2.53617 3.46829,-2.49265 3.46829,0.12866 0,1.25262 0.8034,2.30371 2,2.61663 2.74681,0.71831 2.50657,2.72781 -0.56686,4.7416 -1.41178,0.92503 -3.43678,2.55179 -4.5,3.61501 -2.16929,2.16929 -7.83945,2.58883 -11.13698,0.82405 -1.1398,-0.61 -5.22957,-3.76 -9.08838,-7 -3.85882,-3.24 -7.50917,-5.93264 -8.1119,-5.98365 -4.17948,-0.35368 -10.49329,0.50545 -12.91396,1.75723 -5.16555,2.67121 -19.03243,13.37111 -26.18192,20.20239 -11.85458,11.32695 -15.91134,13.34938 -5.5,2.74194 z"
         transform="translate(-262.06054,326.08338)" />
      <path
         id="path2466"
         style="fill:#000000"
         d="m 602.4473,491.10171 c 0.33229,-0.332291 1.19479,-0.367818 1.91667,-0.078947 0.79773,0.319226 0.56078,0.556183 -0.60417,0.604167 -1.05416,0.043421 -1.64479,-0.192928 -1.3125,-0.52522 z m -58.77083,93.14661 c -6.17036,-1.28645 -7.5,-2.11069 -7.5,-4.64921 0,-2.34098 4.58921,-6.90717 6.89602,-6.86143 1.3078,0.02593 1.23468,0.31555 -0.39602,1.56847 -1.1,0.84516 -2.675,1.95552 -3.5,2.46746 -1.29893,0.80603 -1.25184,1.12317 0.35135,2.36589 1.378291,1.0683915 5.211137,1.4575893 15,1.5231418 18.75485,0.1255982 30.72847,1.3811382 29.0289,3.0439482 -1.32589,1.29722 -34.11995,1.74269 -39.88025,0.54173 z m -87.34293,31.13554 c 3.11139,-1.30854 7.37642,-3.79641 9.47785,-5.52858 2.10142,-1.73217 4.16824,-3.1494 4.59292,-3.1494 1.58916,0 0.68616,2.35036 -1.78171,4.63751 -3.69182,3.42146 -7.26981,5.01372 -12.94613,5.76122 l -5,0.65843613 5.6570734,-2.3791808 z m -36.89579,12.31499 c -9.50995,-2.49208 -21.79613,-7.87277 -30.82221,-13.49848 -17.87941,-11.14375 -25.92439,-27.48509 -20.93155,-42.51713 5.60907,-16.88732 30.65242,-26.6379 61.99248,-24.13663 11.16541,0.891118 27.18329,3.809308 26.21641,4.77619 -0.23351,0.233506 -2.85272,-0.147277 -5.82048,-0.846184 -3.48022,-0.819591 -12.67402,-1.256221 -25.89593,-1.229846 -19.592925,0.039085 -20.845951,0.159912 -28.318529,2.730703 -8.353281,2.873779 -12.435809,5.341495 -16.863349,10.193185 -8.612837,9.437928 -7.323853,24.374368 2.997394,34.733078 2.026466,2.03382 4.584484,4.6795 5.684484,5.8793 4.612711,5.0312 18.212224,12.49762 29.925099,16.4295 21.073201,7.07404 36.236431,6.21628 46.824901,-2.64882 5.72715,-4.795 6.38524,-3.56791 0.79506,1.48249 -11.00899,9.94596 -28.34543,13.22236 -45.783775,8.65264 z m 182.23872,7.00524 c -2.2,-1.60397 -4.98308,-2.93474 -6.18462,-2.95726 -1.20155,-0.02252 -5.25155,-0.6834 -9,-1.46861 -3.74846,-0.78522 -12.66538,-2.13984 -19.81538,-3.01027 -21.66388,-2.63735 -21.12712,-2.3361 -36.46894,-20.46759 -5.39582,-6.37696 -10.70189,-12.49448 -11.79127,-13.59448 -5.08643,-5.13601 -12.06196,-11.32102 -15.23979,-13.5127 -1.925,-1.32763 -3.95,-2.95493 -4.5,-3.61622 -0.55,-0.6613 -1.9,-1.35667 -3,-1.54527 -1.34607,-0.23079 -2.10634,-1.26911 -2.32523,-3.17563 -0.29199,-2.54324 -0.08762,-2.763972 2,-2.16006 7.78308,2.25152 26.00393,18.55133 39.69347,35.50854 1.99747,2.47426 4.18433,5.08397 4.8597,5.79936 0.67536,0.71539 1.57536,1.85313 2,2.5283 1.95108,3.10226 9.39707,7.65078 14.813,9.04879 3.27748,0.84602 13.60906,2.64802 22.95906,4.00446 9.35,1.35643 19.14815,3.19739 21.77367,4.09102 4.56421,1.5535 12.13351,5.50979 11.51903,6.02072 -0.16099,0.13385 -1.8677,0.50884 -3.7927,0.83329 -2.84216,0.47905 -4.25182,0.04179 -7.5,-2.32639 z m -12.5,0.99555 c -3.575,-0.95439 -14.53991,-2.73323 -24.36648,-3.95299 -19.47319,-2.41719 -26.26546,-4.03905 -31.33112,-7.48125 -4.21359,-2.86321 -25.3024,-23.39001 -25.3024,-24.6281 0,-0.51228 -0.3375,-0.93703 -0.75,-0.94389 -0.4125,-0.00686 -4.20781,-3.26936 -8.43402,-7.25 -4.22622,-3.98064 -9.40122,-8.07523 -11.5,-9.09909 -2.09879,-1.02385 -4.94098,-2.50506 -6.31598,-3.29157 -2.88623,-1.65093 -6.46036,-3.2862 -13.5,-6.17665 -5.78925,-2.37704 -25.06272,-4.366476 -31.09302,-3.20947 -12.748149,2.44594 -16.751334,9.65683 -10.902089,19.63781 8.571699,14.62649 33.073159,20.48767 42.675209,10.20865 l 2.8199,-3.01872 0,2.51686 c 0,3.23638 -4.73947,7.27707 -10.29547,8.77753 -2.31249,0.62451 -7.87407,0.94427 -12.35906,0.71058 -6.59829,-0.34382 -9.38556,-1.03094 -14.605,-3.60046 -7.620058,-3.75134 -15.122524,-11.29545 -16.617472,-16.70971 -3.940436,-14.27108 7.679651,-24.482139 27.969862,-24.578291 4.88199,-0.023135 9.32787,0.236994 9.87974,0.578065 1.41535,0.874734 12.22187,3.743113 14.0274,3.723298 0.825,-0.009054 3.4076,0.840808 5.7391,1.888588 2.33151,1.04778 4.51299,1.90505 4.84774,1.90505 1.30355,0 16.22433,11.06738 20.45081,15.16923 2.45429,2.38192 6.48735,6.16852 8.96235,8.41465 2.475,2.24613 8.98709,8.68327 14.47131,14.30475 13.58908,13.92919 18.84634,16.53133 37.52869,18.57523 25.28562,2.76632 41.31284,6.45185 37.78659,8.6892 -1.58249,1.00406 -1.763,0.98268 -9.78659,-1.1593 z"
         transform="translate(-3.6733206,324.31525)" />
      <path
         style="opacity:1;fill:#000000;fill-opacity:1;fill-rule:nonzero;stroke:none"
         d="m 523.09375,1127.9688 c -1.39228,0.6196 -2.1015,2.1821 -2.18241,3.6391 -0.26681,2.4069 -0.54013,4.868 -0.06759,7.2671 0.59916,2.4195 1.97087,4.5349 3.36858,6.562 1.38651,2.0855 2.9956,4.04 4.11332,6.2919 0.63261,1.3927 1.35141,2.8247 1.3306,4.3914 0.00928,1.8071 -0.8457,3.5171 -2.06963,4.8099 -0.6858,0.8277 -1.52797,1.5049 -2.50228,1.9619 -1.04161,0.5219 -2.30013,0.8059 -3.41275,0.3277 -1.52206,-0.4972 -2.74852,-1.5853 -3.8946,-2.6616 -1.08802,-1.0955 -1.95464,-2.3857 -2.87647,-3.6178 -0.76552,-1.1198 -1.41865,-2.3176 -2.11927,-3.4716 0.01233,0.9081 0.18245,1.8807 0.0349,2.8183 -0.06888,1.7392 0.25249,3.4653 0.6526,5.1504 0.58198,1.2101 1.43414,2.2667 1.96875,3.5 0.82037,1.6751 1.78434,3.3742 3.34375,4.4687 1.20307,0.6156 2.56718,0.0619 3.71875,-0.4062 1.92808,-1.0191 3.80988,-2.1381 5.54973,-3.457 1.24217,-0.9353 2.42533,-2.0414 3.03906,-3.5008 0.96901,-2.1789 1.15737,-4.5858 1.50496,-6.9172 0.25,-2.0086 0.03128,-4.0885 -0.79743,-5.9467 -0.46143,-1.1019 -1.1576,-2.0857 -1.69531,-3.1519 -1.11668,-2.0419 -2.18501,-4.1491 -2.72256,-6.4258 -0.13788,-0.9159 -0.21567,-1.9999 0.5278,-2.6944 0.81103,-0.671 1.86231,-0.4519 2.78125,-0.1874 1.09316,0.3306 2.13487,0.8082 3.15625,1.3124 0.78913,0.2471 1.82544,0.2043 2.2889,-0.5896 0.74456,-1.0369 0.51223,-2.423 0.20441,-3.5744 -0.30999,-1.0877 -0.47809,-2.4365 -1.55936,-3.0497 -1.09664,-0.6928 -2.4201,-0.2251 -3.61601,-0.1759 -1.60186,0.2044 -3.35388,0.2907 -4.79285,-0.5708 -1.0494,-0.5945 -1.70472,-1.7846 -2.90009,-2.1333 -0.12748,-0.0184 -0.25087,0.0091 -0.375,0.0313 z"
         id="path2664"
         sodipodi:nodetypes="ccssssscssssssc"
         transform="translate(-55.724519,-175.18072)" />
      <path
         style="opacity:1;fill:#000000;fill-opacity:1;fill-rule:nonzero;stroke:none"
         d="m 526.56011,1124.0175 c 0.43196,2.5917 7.34333,3.8876 8.63921,3.6716 1.29588,-0.216 12.52686,-6.4794 12.52686,-6.4794 l 1.94383,-2.8077 c 0,0 -9.719116,3.2397053 -11.014998,3.6716661 -1.2958821,0.43196071 -6.04745,0.21598036 -6.04745,0.21598036 0,0 0.21598036,-2.1598036 2.8077446,-3.023725 C 538.00707,1118.402 539.51893,1118.6179 540.38285,1117.97 c 0.86392,-0.6479 2.37578,-3.0237 2.37578,-3.0237 0,0 -5.6154893,1.2958821 -6.4794107,1.7278428 C 535.4153,1117.1061 531.52766,1117.3221 530.23177,1117.97 c -1.29588,0.6479 -4.10362,6.4794 -3.67166,6.0475 z"
         id="path2666"
         transform="translate(-39.740385,-170.4085)" />
    </g>
  </g>
  <path
     style="opacity:1;fill:#000000;fill-opacity:1;fill-rule:nonzero;stroke:none"
     d="m 113.35705,-405.77791 c 0,0 -2.9692909,2.7946267 -2.9692909,4.8905968 0,2.09597 1.7466417,5.7639176 5.9385818,5.5892535 4.1919391,-0.1746603 15.021119,-7.5105603 19.038389,-9.9558603 4.01728,-2.44529 12.05183,-7.16123 12.75049,-7.68522 0.69865,-0.52399 -13.62381,3.84261 -17.81575,6.11325 -4.19194,2.27063 -9.08254,5.41459 -12.22649,5.58925 -3.14396,0.17466 -4.71593,-1.74664 -4.71593,-1.74664 z"
     id="path2690"
     transform="translate(16.287108,570.95648)" />
</svg>
